<svg width="32" height="32" viewBox="0 0 32 32" fill="none" xmlns="http://www.w3.org/2000/svg">
<g clip-path="url(#clip0_2043_648)">
<path d="M8.00008 25.3333H24.0001V17.3333H8.00008V25.3333ZM9.33342 18.6667H22.6667V24H9.33342V18.6667ZM14.6667 13.3333H8.00008V12H14.6667V13.3333ZM14.6667 8H8.00008V6.66667H14.6667V8ZM19.6094 0H6.00008C4.16275 0 2.66675 1.496 2.66675 3.33333V32H29.3334V9.724L19.6094 0ZM20.0001 2.276L27.0574 9.33333H20.0001V2.276ZM4.00008 30.6667V3.33333C4.00008 2.23067 4.89741 1.33333 6.00008 1.33333H18.6667V10.6667H28.0001V30.6667H4.00008Z" fill="black"/>
</g>
<defs>
<clipPath id="clip0_2043_648">
<rect width="32" height="32" fill="white"/>
</clipPath>
</defs>
</svg>
