<svg width="32" height="32" viewBox="0 0 32 32" fill="none" xmlns="http://www.w3.org/2000/svg">
<g clip-path="url(#clip0_2043_656)">
<path d="M24.4733 9.80259L23.5253 8.86525L17.388 15.0586C16.9827 14.8106 16.508 14.6679 15.9987 14.6679C14.528 14.6679 13.332 15.8639 13.332 17.3346C13.332 18.8053 14.528 20.0013 15.9987 20.0013C17.4693 20.0013 18.6653 18.8053 18.6653 17.3346C18.6653 16.8559 18.5373 16.4053 18.3147 16.0159L24.4733 9.80259ZM16 18.6666C15.2653 18.6666 14.6667 18.0693 14.6667 17.3333C14.6667 16.5973 15.2653 15.9999 16 15.9999C16.7347 15.9999 17.3333 16.5973 17.3333 17.3333C17.3333 18.0693 16.7347 18.6666 16 18.6666ZM32 17.3333C32 22.5293 29.452 27.4239 25.1827 30.4239L24.7573 30.7239L21.14 27.5946L22.012 26.5866L24.8347 29.0279C28.496 26.2573 30.6667 21.9239 30.6667 17.3333C30.6667 9.24659 24.0867 2.66659 16 2.66659C7.91333 2.66659 1.33333 9.24659 1.33333 17.3333C1.33333 21.9226 3.504 26.2573 7.16533 29.0279L9.988 26.5866L10.86 27.5946L7.24267 30.7239L6.81733 30.4239C2.548 27.4226 0 22.5293 0 17.3333C0 8.51059 7.17733 1.33325 16 1.33325C24.8227 1.33325 32 8.51059 32 17.3333Z" fill="black"/>
</g>
<defs>
<clipPath id="clip0_2043_656">
<rect width="32" height="32" fill="white"/>
</clipPath>
</defs>
</svg>
