<svg width="32" height="32" viewBox="0 0 32 32" fill="none" xmlns="http://www.w3.org/2000/svg">
<g clip-path="url(#clip0_2043_663)">
<path d="M30.6667 8V18.6667H21.3293C21.2413 10.6947 19.5773 0 16 0C12.4227 0 10.7587 10.6947 10.6707 18.6667H1.33333V8H0V28H1.33333V24.1947L9.73867 32H12V29.3333H20V32H22.332L30.6667 24.204V28H32V8H30.6667ZM16 1.33333C16.9773 1.33333 18.0627 3.668 18.8573 7.384C17.9827 6.90667 17.0267 6.66667 16 6.66667C14.9733 6.66667 14.0173 6.90667 13.1427 7.384C13.936 3.668 15.0227 1.33333 16 1.33333ZM10.6667 30.6667H10.2613L1.33333 22.376V20H10.6667V30.6667ZM12 28V19.3333C12 15.5987 12.3067 12.1373 12.7867 9.268C13.7213 8.42667 14.8013 8 16 8C17.1987 8 18.2787 8.42667 19.2133 9.268C19.692 12.1373 20 15.6 20 19.3333V28H12ZM21.8053 30.6667H21.3333V20H30.6667V22.3773L21.8053 30.6667Z" fill="black"/>
</g>
<defs>
<clipPath id="clip0_2043_663">
<rect width="32" height="32" fill="white"/>
</clipPath>
</defs>
</svg>
