<svg width="194" height="45" viewBox="0 0 194 45" fill="none" xmlns="http://www.w3.org/2000/svg">
<g clip-path="url(#clip0_2083_92)">
<g opacity="0.925">
<path fill-rule="evenodd" clip-rule="evenodd" d="M54.7178 -0.120968C56.25 -0.120968 57.7824 -0.120968 59.3145 -0.120968C59.3145 6.81452 59.3145 13.75 59.3145 20.6855C57.7824 20.6855 56.25 20.6855 54.7178 20.6855C54.7178 13.75 54.7178 6.81452 54.7178 -0.120968Z" fill="black"/>
<path fill-rule="evenodd" clip-rule="evenodd" d="M106.976 -0.120968C108.427 -0.120968 109.879 -0.120968 111.331 -0.120968C111.29 3.50896 111.331 7.13799 111.452 10.7661C113.024 8.87098 114.597 6.9758 116.169 5.08065C117.944 4.91935 119.718 4.91935 121.492 5.08065C119.592 7.26302 117.737 9.48075 115.927 11.7339C117.863 14.6371 119.798 17.5403 121.734 20.4436C119.96 20.7661 118.185 20.7661 116.411 20.4436C115.14 18.466 113.81 16.5305 112.419 14.6371C112.097 14.9597 111.774 15.2823 111.452 15.6048C111.331 17.2965 111.291 18.99 111.331 20.6855C109.879 20.6855 108.427 20.6855 106.976 20.6855C106.976 13.75 106.976 6.81452 106.976 -0.120968Z" fill="black"/>
<path fill-rule="evenodd" clip-rule="evenodd" d="M63.6694 1.33065C65.121 1.33065 66.5726 1.33065 68.0242 1.33065C68.0242 2.54032 68.0242 3.75 68.0242 4.95968C68.992 4.95968 69.9597 4.95968 70.9275 4.95968C70.9275 6.08872 70.9275 7.21773 70.9275 8.34678C69.9597 8.34678 68.992 8.34678 68.0242 8.34678C67.9841 10.8481 68.0242 13.3481 68.1452 15.8468C68.2112 16.2893 68.413 16.6522 68.75 16.9355C69.3902 17.0558 70.0354 17.0962 70.6855 17.0565C70.8348 18.125 71.0767 19.1734 71.4113 20.2016C71.1994 20.3833 70.9575 20.5042 70.6855 20.5645C68.8601 20.837 67.0858 20.6757 65.3629 20.0806C64.5479 19.5085 64.0236 18.7424 63.7904 17.7823C63.6694 14.6381 63.629 11.493 63.6694 8.34678C62.9436 8.34678 62.2178 8.34678 61.492 8.34678C61.492 7.21773 61.492 6.08872 61.492 4.95968C62.2178 4.95968 62.9436 4.95968 63.6694 4.95968C63.6694 3.75 63.6694 2.54032 63.6694 1.33065Z" fill="black"/>
<path fill-rule="evenodd" clip-rule="evenodd" d="M78.9113 4.71774C85.1404 4.57623 88.1242 7.64073 87.8629 13.9113C84.3137 13.871 80.7653 13.9113 77.2178 14.0323C77.8875 17.0284 79.6618 17.9961 82.5404 16.9355C82.9548 16.602 83.2775 16.1988 83.5081 15.7258C84.8726 15.7578 86.2437 15.7981 87.621 15.8468C87.1548 18.2902 85.7032 19.8628 83.2662 20.5645C75.322 21.4907 71.9753 17.9827 73.2258 10.0403C74.0801 7.12882 75.9754 5.35464 78.9113 4.71774ZM79.8791 8.10484C81.9595 8.00954 83.1691 8.97728 83.5081 11.0081C81.4921 11.0081 79.4758 11.0081 77.4597 11.0081C77.6537 9.52418 78.4601 8.55644 79.8791 8.10484Z" fill="black"/>
<path fill-rule="evenodd" clip-rule="evenodd" d="M95.8468 4.71774C98.885 4.2654 101.425 5.1525 103.468 7.37903C104.05 8.44004 104.413 9.56908 104.556 10.7661C103.096 10.8458 101.644 10.7651 100.202 10.5242C99.4696 8.4645 98.0985 7.85966 96.0887 8.70968C94.5401 10.2121 94.0158 12.0266 94.5162 14.1532C94.8082 16.2217 95.9777 17.2297 98.0242 17.1774C99.3987 16.8892 100.124 16.0424 100.202 14.6371C101.653 14.6371 103.105 14.6371 104.556 14.6371C104.066 18.7556 101.727 20.8523 97.5404 20.9274C93.2748 20.8941 90.7345 18.7973 89.9194 14.6371C89.0726 9.54549 91.0485 6.23903 95.8468 4.71774Z" fill="black"/>
</g>
<g opacity="0.987">
<path fill-rule="evenodd" clip-rule="evenodd" d="M28.6695 15.121C33.5888 15.121 38.5083 15.121 43.4276 15.121C43.468 21.1699 43.4276 27.2182 43.3066 33.2661C42.0384 39.1311 38.4495 42.6392 32.5405 43.7903C26.5734 43.9113 20.6055 43.9517 14.6372 43.9113C14.6372 39.0726 14.6372 34.2339 14.6372 29.3952C19.3146 29.3952 23.9921 29.3952 28.6695 29.3952C28.6695 24.637 28.6695 19.879 28.6695 15.121Z" fill="#EC6326"/>
<path fill-rule="evenodd" clip-rule="evenodd" d="M28.6695 15.121C23.9921 15.121 19.3146 15.121 14.6372 15.121C14.6372 19.879 14.6372 24.637 14.6372 29.3952C9.71787 29.3952 4.7985 29.3952 -0.12085 29.3952C-0.12085 23.3468 -0.12085 17.2984 -0.12085 11.25C1.22484 5.42916 4.85388 1.92109 10.7663 0.72581C16.7334 0.60485 22.7012 0.564527 28.6695 0.604843C28.6695 5.44355 28.6695 10.2823 28.6695 15.121Z" fill="#EC6326"/>
</g>
<g opacity="0.603">
<path fill-rule="evenodd" clip-rule="evenodd" d="M53.5081 33.75C55.766 33.75 58.0243 33.75 60.2823 33.75C60.2823 34.1533 60.2823 34.5564 60.2823 34.9597C59.3951 34.9597 58.5081 34.9597 57.621 34.9597C57.621 37.5404 57.621 40.1209 57.621 42.7016C57.1371 42.7016 56.6532 42.7016 56.1693 42.7016C56.1693 40.1209 56.1693 37.5404 56.1693 34.9597C55.2822 34.9597 54.3952 34.9597 53.5081 34.9597C53.5081 34.5564 53.5081 34.1533 53.5081 33.75Z" fill="black"/>
<path fill-rule="evenodd" clip-rule="evenodd" d="M61.7339 33.75C63.5888 33.75 65.4435 33.75 67.2984 33.75C67.2984 34.1533 67.2984 34.5564 67.2984 34.9597C65.8468 34.9597 64.3952 34.9597 62.9435 34.9597C62.9435 35.8469 62.9435 36.7338 62.9435 37.621C64.3146 37.621 65.6854 37.621 67.0564 37.621C67.0564 38.0243 67.0564 38.4273 67.0564 38.8306C65.6854 38.8306 64.3146 38.8306 62.9435 38.8306C62.9435 39.7984 62.9435 40.7661 62.9435 41.7339C64.3952 41.7339 65.8468 41.7339 67.2984 41.7339C67.2984 42.0564 67.2984 42.3791 67.2984 42.7016C65.4435 42.7016 63.5888 42.7016 61.7339 42.7016C61.7339 39.7178 61.7339 36.7338 61.7339 33.75Z" fill="black"/>
<path fill-rule="evenodd" clip-rule="evenodd" d="M71.4113 33.75C73.8234 33.2838 75.4364 34.171 76.25 36.4113C75.8692 36.6849 75.4659 36.7253 75.0403 36.5323C74.1309 34.9648 72.8404 34.5617 71.1694 35.3226C70.0214 36.5973 69.6585 38.0894 70.0806 39.7984C71.0174 41.7382 72.4289 42.1817 74.3145 41.129C74.6464 40.8285 74.8884 40.4656 75.0403 40.0403C75.4141 39.81 75.8174 39.7294 76.25 39.7984C75.4751 42.5654 73.701 43.4927 70.9274 42.5806C69.883 42.0206 69.1976 41.1738 68.871 40.0403C68.488 38.1181 68.8105 36.344 69.8387 34.7177C70.3456 34.3246 70.8696 34.0021 71.4113 33.75Z" fill="black"/>
<path fill-rule="evenodd" clip-rule="evenodd" d="M77.9435 33.75C78.3469 33.75 78.7499 33.75 79.1532 33.75C79.1532 35.0402 79.1532 36.3307 79.1532 37.621C80.6854 37.621 82.2178 37.621 83.75 37.621C83.75 36.3307 83.75 35.0402 83.75 33.75C84.1533 33.75 84.5564 33.75 84.9597 33.75C84.9597 36.7338 84.9597 39.7178 84.9597 42.7016C84.5564 42.7016 84.1533 42.7016 83.75 42.7016C83.75 41.4114 83.75 40.1209 83.75 38.8306C82.2178 38.8306 80.6854 38.8306 79.1532 38.8306C79.1532 40.1209 79.1532 41.4114 79.1532 42.7016C78.7499 42.7016 78.3469 42.7016 77.9435 42.7016C77.9435 39.7178 77.9435 36.7338 77.9435 33.75Z" fill="black"/>
<path fill-rule="evenodd" clip-rule="evenodd" d="M91.7339 33.75C94.0831 33.3982 95.0912 34.366 94.7581 36.6532C94.4346 37.2585 93.9909 37.7424 93.4274 38.1048C93.8181 38.8185 94.302 39.4635 94.879 40.0403C95.0138 39.1977 95.4977 38.7944 96.3306 38.8306C96.4153 39.6905 96.2542 40.4971 95.8468 41.25C96.2053 41.7298 96.6086 42.1732 97.0564 42.5806C96.26 42.8071 95.5342 42.6861 94.879 42.2177C93.169 43.2992 91.5964 43.1378 90.1613 41.7339C89.8589 41.1104 89.7781 40.4654 89.9193 39.7984C90.2639 39.0503 90.7073 38.3647 91.25 37.7419C90.1419 36.2122 90.3033 34.8815 91.7339 33.75ZM92.4597 34.7177C93.5513 34.807 93.9142 35.3714 93.5484 36.4113C92.6503 37.3904 92.0455 37.1889 91.7339 35.8064C91.931 35.4089 92.173 35.046 92.4597 34.7177ZM92.2177 38.8306C92.8956 39.5506 93.5409 40.3166 94.1532 41.129C93.2748 41.8931 92.3474 41.9335 91.371 41.25C90.966 40.2314 91.2481 39.4251 92.2177 38.8306Z" fill="black"/>
<path fill-rule="evenodd" clip-rule="evenodd" d="M101.411 33.75C101.815 33.75 102.218 33.75 102.621 33.75C102.621 36.7338 102.621 39.7178 102.621 42.7016C102.218 42.7016 101.815 42.7016 101.411 42.7016C101.411 39.7178 101.411 36.7338 101.411 33.75Z" fill="black"/>
<path fill-rule="evenodd" clip-rule="evenodd" d="M104.073 33.75C106.331 33.75 108.589 33.75 110.847 33.75C110.847 34.1533 110.847 34.5564 110.847 34.9597C109.96 34.9597 109.073 34.9597 108.185 34.9597C108.185 37.5404 108.185 40.1209 108.185 42.7016C107.702 42.7016 107.218 42.7016 106.734 42.7016C106.734 40.1209 106.734 37.5404 106.734 34.9597C105.847 34.9597 104.96 34.9597 104.073 34.9597C104.073 34.5564 104.073 34.1533 104.073 33.75Z" fill="black"/>
<path fill-rule="evenodd" clip-rule="evenodd" d="M117.379 33.75C119.655 33.1921 121.107 33.9987 121.734 36.1694C121.323 36.2081 120.92 36.1679 120.524 36.0484C119.564 34.6696 118.395 34.4678 117.016 35.4435C116.833 35.9925 116.873 36.5168 117.137 37.0161C118.43 37.5005 119.72 37.9844 121.008 38.4677C122.102 39.9939 121.941 41.3649 120.524 42.5806C118.588 43.3302 116.934 42.9673 115.565 41.4919C115.498 41.1046 115.378 40.7417 115.202 40.4032C115.679 40.2835 116.163 40.2431 116.653 40.2823C116.825 41.341 117.471 41.8248 118.589 41.7339C120.373 41.6944 120.857 40.9285 120.04 39.4355C119.195 39.0022 118.308 38.6797 117.379 38.4677C115.738 37.8919 115.213 36.8032 115.806 35.2016C116.168 34.5208 116.692 34.0369 117.379 33.75Z" fill="black"/>
<path fill-rule="evenodd" clip-rule="evenodd" d="M125.847 33.75C128.388 33.277 130.041 34.2448 130.806 36.6532C131.364 38.8814 130.84 40.7768 129.234 42.3387C126.463 43.5663 124.487 42.8001 123.306 40.0403C122.89 38.0473 123.253 36.2327 124.395 34.5968C124.863 34.2438 125.346 33.9617 125.847 33.75ZM126.089 34.9597C127.811 34.6306 128.98 35.2759 129.597 36.8952C129.861 38.2493 129.699 39.5395 129.113 40.7661C127.194 42.261 125.662 41.9383 124.516 39.7984C123.963 37.7855 124.487 36.1725 126.089 34.9597Z" fill="black"/>
<path fill-rule="evenodd" clip-rule="evenodd" d="M132.621 33.75C133.024 33.75 133.427 33.75 133.831 33.75C133.831 36.4113 133.831 39.0726 133.831 41.7339C135.202 41.7339 136.573 41.7339 137.944 41.7339C137.944 42.0564 137.944 42.3791 137.944 42.7016C136.169 42.7016 134.395 42.7016 132.621 42.7016C132.621 39.7178 132.621 36.7338 132.621 33.75Z" fill="black"/>
<path fill-rule="evenodd" clip-rule="evenodd" d="M139.395 33.75C139.798 33.75 140.202 33.75 140.605 33.75C140.565 35.9289 140.605 38.1063 140.726 40.2823C141.546 41.7259 142.716 42.0888 144.234 41.371C144.609 41.0773 144.891 40.7144 145.081 40.2823C145.202 38.1063 145.242 35.9289 145.202 33.75C145.605 33.75 146.008 33.75 146.411 33.75C146.451 36.09 146.411 38.4288 146.29 40.7661C145.683 42.2806 144.554 43.0064 142.903 42.9435C141.253 43.0064 140.124 42.2806 139.516 40.7661C139.395 38.4288 139.355 36.09 139.395 33.75Z" fill="black"/>
<path fill-rule="evenodd" clip-rule="evenodd" d="M147.863 33.75C150.121 33.75 152.379 33.75 154.637 33.75C154.637 34.1533 154.637 34.5564 154.637 34.9597C153.75 34.9597 152.863 34.9597 151.976 34.9597C151.976 37.5404 151.976 40.1209 151.976 42.7016C151.492 42.7016 151.008 42.7016 150.524 42.7016C150.524 40.1209 150.524 37.5404 150.524 34.9597C149.637 34.9597 148.75 34.9597 147.863 34.9597C147.863 34.5564 147.863 34.1533 147.863 33.75Z" fill="black"/>
<path fill-rule="evenodd" clip-rule="evenodd" d="M156.089 33.75C156.492 33.75 156.895 33.75 157.298 33.75C157.298 36.7338 157.298 39.7178 157.298 42.7016C156.895 42.7016 156.492 42.7016 156.089 42.7016C156.089 39.7178 156.089 36.7338 156.089 33.75Z" fill="black"/>
<path fill-rule="evenodd" clip-rule="evenodd" d="M161.895 33.75C164.436 33.277 166.09 34.2448 166.855 36.6532C167.413 38.8814 166.888 40.7768 165.282 42.3387C162.511 43.5663 160.535 42.8001 159.355 40.0403C158.939 38.0473 159.302 36.2327 160.444 34.5968C160.911 34.2438 161.395 33.9617 161.895 33.75ZM162.137 34.9597C163.859 34.6306 165.028 35.2759 165.645 36.8952C165.909 38.2493 165.748 39.5395 165.161 40.7661C163.243 42.261 161.71 41.9383 160.565 39.7984C160.011 37.7855 160.535 36.1725 162.137 34.9597Z" fill="black"/>
<path fill-rule="evenodd" clip-rule="evenodd" d="M168.669 33.75C169.285 33.6542 169.809 33.8156 170.242 34.2339C171.694 36.3307 173.145 38.4273 174.597 40.5242C174.718 38.2677 174.758 36.0094 174.718 33.75C175.121 33.75 175.524 33.75 175.927 33.75C175.927 36.7338 175.927 39.7178 175.927 42.7016C175.373 42.7635 174.849 42.683 174.355 42.4597C172.903 40.3628 171.452 38.2662 170 36.1694C169.879 38.3453 169.839 40.5227 169.879 42.7016C169.476 42.7016 169.073 42.7016 168.669 42.7016C168.669 39.7178 168.669 36.7338 168.669 33.75Z" fill="black"/>
<path fill-rule="evenodd" clip-rule="evenodd" d="M183.669 35.4435C183.669 35.6855 183.669 35.9274 183.669 36.1694C183.258 36.2081 182.855 36.1679 182.46 36.0484C181.568 34.7371 180.439 34.4952 179.073 35.3226C178.75 35.887 178.75 36.4517 179.073 37.0161C180.007 37.4352 180.975 37.7579 181.976 37.9839C182.731 38.2178 183.295 38.6613 183.669 39.3145C183.669 40.0403 183.669 40.7661 183.669 41.4919C182.517 42.8291 181.065 43.2726 179.315 42.8226C178.088 42.4645 177.362 41.6581 177.137 40.4032C177.614 40.2835 178.098 40.2431 178.589 40.2823C178.761 41.341 179.406 41.8248 180.524 41.7339C182.309 41.6944 182.793 40.9285 181.976 39.4355C181.131 39.0022 180.244 38.6797 179.315 38.4677C177.244 37.4988 176.921 36.128 178.347 34.3548C180.474 33.2569 182.248 33.6198 183.669 35.4435Z" fill="black"/>
</g>
</g>
<defs>
<clipPath id="clip0_2083_92">
<rect width="193.79" height="45" fill="white"/>
</clipPath>
</defs>
</svg>
